<mxfile host="app.diagrams.net" agent="Mozilla/5.0 (Windows NT 10.0; Win64; x64) AppleWebKit/537.36 (KHTML, like Gecko) Chrome/130.0.0.0 Safari/537.36" version="24.8.3">
  <diagram name="第 1 页" id="TVWLxqExjhhNq29bku-U">
    <mxGraphModel dx="1434" dy="746" grid="1" gridSize="10" guides="1" tooltips="1" connect="1" arrows="1" fold="1" page="1" pageScale="1" pageWidth="827" pageHeight="1169" math="0" shadow="0">
      <root>
        <mxCell id="0" />
        <mxCell id="1" parent="0" />
        <mxCell id="2jsEqey2itAfHUUxecsS-3" value="" style="edgeStyle=orthogonalEdgeStyle;rounded=0;orthogonalLoop=1;jettySize=auto;html=1;" edge="1" parent="1" source="2jsEqey2itAfHUUxecsS-1" target="2jsEqey2itAfHUUxecsS-2">
          <mxGeometry relative="1" as="geometry" />
        </mxCell>
        <mxCell id="2jsEqey2itAfHUUxecsS-1" value="入库需求确认" style="rounded=1;whiteSpace=wrap;html=1;fillColor=#d5e8d4;strokeColor=#82b366;" vertex="1" parent="1">
          <mxGeometry x="50" y="290" width="120" height="60" as="geometry" />
        </mxCell>
        <mxCell id="2jsEqey2itAfHUUxecsS-7" value="" style="edgeStyle=orthogonalEdgeStyle;rounded=0;orthogonalLoop=1;jettySize=auto;html=1;" edge="1" parent="1" source="2jsEqey2itAfHUUxecsS-2" target="2jsEqey2itAfHUUxecsS-6">
          <mxGeometry relative="1" as="geometry" />
        </mxCell>
        <mxCell id="2jsEqey2itAfHUUxecsS-2" value="入库申请生成" style="rounded=1;whiteSpace=wrap;html=1;fillColor=#dae8fc;strokeColor=#6c8ebf;" vertex="1" parent="1">
          <mxGeometry x="250" y="290" width="120" height="60" as="geometry" />
        </mxCell>
        <mxCell id="2jsEqey2itAfHUUxecsS-9" value="" style="edgeStyle=orthogonalEdgeStyle;rounded=0;orthogonalLoop=1;jettySize=auto;html=1;" edge="1" parent="1" source="2jsEqey2itAfHUUxecsS-6" target="2jsEqey2itAfHUUxecsS-8">
          <mxGeometry relative="1" as="geometry" />
        </mxCell>
        <mxCell id="2jsEqey2itAfHUUxecsS-6" value="入库申请审核" style="rounded=1;whiteSpace=wrap;html=1;fillColor=#f8cecc;strokeColor=#b85450;" vertex="1" parent="1">
          <mxGeometry x="450" y="290" width="120" height="60" as="geometry" />
        </mxCell>
        <mxCell id="2jsEqey2itAfHUUxecsS-11" value="" style="edgeStyle=orthogonalEdgeStyle;rounded=0;orthogonalLoop=1;jettySize=auto;html=1;" edge="1" parent="1" source="2jsEqey2itAfHUUxecsS-8" target="2jsEqey2itAfHUUxecsS-10">
          <mxGeometry relative="1" as="geometry" />
        </mxCell>
        <mxCell id="2jsEqey2itAfHUUxecsS-8" value="入库申请信息录入" style="rounded=1;whiteSpace=wrap;html=1;fillColor=#d5e8d4;strokeColor=#82b366;" vertex="1" parent="1">
          <mxGeometry x="650" y="290" width="120" height="60" as="geometry" />
        </mxCell>
        <mxCell id="2jsEqey2itAfHUUxecsS-13" value="" style="edgeStyle=orthogonalEdgeStyle;rounded=0;orthogonalLoop=1;jettySize=auto;html=1;" edge="1" parent="1" source="2jsEqey2itAfHUUxecsS-10" target="2jsEqey2itAfHUUxecsS-12">
          <mxGeometry relative="1" as="geometry" />
        </mxCell>
        <mxCell id="2jsEqey2itAfHUUxecsS-10" value="入库计划制定" style="rounded=1;whiteSpace=wrap;html=1;fillColor=#fff2cc;strokeColor=#d6b656;" vertex="1" parent="1">
          <mxGeometry x="650" y="430" width="120" height="60" as="geometry" />
        </mxCell>
        <mxCell id="2jsEqey2itAfHUUxecsS-15" value="" style="edgeStyle=orthogonalEdgeStyle;rounded=0;orthogonalLoop=1;jettySize=auto;html=1;" edge="1" parent="1" source="2jsEqey2itAfHUUxecsS-12" target="2jsEqey2itAfHUUxecsS-14">
          <mxGeometry relative="1" as="geometry" />
        </mxCell>
        <mxCell id="2jsEqey2itAfHUUxecsS-12" value="入库计划审核" style="rounded=1;whiteSpace=wrap;html=1;fillColor=#f8cecc;strokeColor=#b85450;" vertex="1" parent="1">
          <mxGeometry x="450" y="430" width="120" height="60" as="geometry" />
        </mxCell>
        <mxCell id="2jsEqey2itAfHUUxecsS-17" value="" style="edgeStyle=orthogonalEdgeStyle;rounded=0;orthogonalLoop=1;jettySize=auto;html=1;" edge="1" parent="1" source="2jsEqey2itAfHUUxecsS-14" target="2jsEqey2itAfHUUxecsS-16">
          <mxGeometry relative="1" as="geometry" />
        </mxCell>
        <mxCell id="2jsEqey2itAfHUUxecsS-14" value="生成入库单" style="rounded=1;whiteSpace=wrap;html=1;fillColor=#d5e8d4;strokeColor=#82b366;" vertex="1" parent="1">
          <mxGeometry x="250" y="430" width="120" height="60" as="geometry" />
        </mxCell>
        <mxCell id="2jsEqey2itAfHUUxecsS-19" value="" style="edgeStyle=orthogonalEdgeStyle;rounded=0;orthogonalLoop=1;jettySize=auto;html=1;" edge="1" parent="1" source="2jsEqey2itAfHUUxecsS-16" target="2jsEqey2itAfHUUxecsS-18">
          <mxGeometry relative="1" as="geometry" />
        </mxCell>
        <mxCell id="2jsEqey2itAfHUUxecsS-16" value="仓库准备接收" style="rounded=1;whiteSpace=wrap;html=1;fillColor=#f5f5f5;strokeColor=#666666;fontColor=#333333;" vertex="1" parent="1">
          <mxGeometry x="50" y="430" width="120" height="60" as="geometry" />
        </mxCell>
        <mxCell id="2jsEqey2itAfHUUxecsS-21" value="" style="edgeStyle=orthogonalEdgeStyle;rounded=0;orthogonalLoop=1;jettySize=auto;html=1;" edge="1" parent="1" source="2jsEqey2itAfHUUxecsS-18" target="2jsEqey2itAfHUUxecsS-20">
          <mxGeometry relative="1" as="geometry" />
        </mxCell>
        <mxCell id="2jsEqey2itAfHUUxecsS-18" value="货物到达接收" style="rounded=1;whiteSpace=wrap;html=1;fillColor=#fff2cc;strokeColor=#d6b656;" vertex="1" parent="1">
          <mxGeometry x="50" y="570" width="120" height="60" as="geometry" />
        </mxCell>
        <mxCell id="2jsEqey2itAfHUUxecsS-23" value="" style="edgeStyle=orthogonalEdgeStyle;rounded=0;orthogonalLoop=1;jettySize=auto;html=1;" edge="1" parent="1" source="2jsEqey2itAfHUUxecsS-20" target="2jsEqey2itAfHUUxecsS-22">
          <mxGeometry relative="1" as="geometry" />
        </mxCell>
        <mxCell id="2jsEqey2itAfHUUxecsS-20" value="更新库存信息" style="rounded=1;whiteSpace=wrap;html=1;fillColor=#60a917;strokeColor=#2D7600;fontColor=#ffffff;" vertex="1" parent="1">
          <mxGeometry x="250" y="570" width="120" height="60" as="geometry" />
        </mxCell>
        <mxCell id="2jsEqey2itAfHUUxecsS-25" value="" style="edgeStyle=orthogonalEdgeStyle;rounded=0;orthogonalLoop=1;jettySize=auto;html=1;" edge="1" parent="1" source="2jsEqey2itAfHUUxecsS-22" target="2jsEqey2itAfHUUxecsS-24">
          <mxGeometry relative="1" as="geometry" />
        </mxCell>
        <mxCell id="2jsEqey2itAfHUUxecsS-22" value="入库记录存档" style="rounded=1;whiteSpace=wrap;html=1;fillColor=#ffe6cc;strokeColor=#d79b00;" vertex="1" parent="1">
          <mxGeometry x="450" y="570" width="120" height="60" as="geometry" />
        </mxCell>
        <mxCell id="2jsEqey2itAfHUUxecsS-24" value="反馈流程优化" style="rounded=1;whiteSpace=wrap;html=1;" vertex="1" parent="1">
          <mxGeometry x="650" y="570" width="120" height="60" as="geometry" />
        </mxCell>
      </root>
    </mxGraphModel>
  </diagram>
</mxfile>
